<svg xmlns="http://www.w3.org/2000/svg" width="400" height="400" viewBox="0 0 400 400"><path opacity=".95" fill="#fff" d="M187.294 364.797c.125.563.189 1.22.189 1.952 0 .729-.063 1.383-.188 1.942-.12.534-.3 1.001-.536 1.385-.229.372-.508.673-.854.916-.352.248-.779.438-1.27.562-.517.133-1.123.2-1.8.2h-2.211v-10.03h2.211c.678 0 1.283.065 1.8.199.492.125.919.313 1.27.562.346.244.626.545.854.92.235.385.416.853.535 1.392zm18.41-26.722c-.218-.39-.481-.702-.811-.955-.331-.257-.734-.451-1.198-.582-.493-.139-1.075-.208-1.727-.208-.646 0-1.226.069-1.719.208-.463.131-.865.325-1.198.582-.328.254-.595.567-.813.957-.225.4-.396.889-.51 1.449-.118.577-.177 1.25-.177 1.998 0 .754.06 1.429.177 2.009.114.561.286 1.047.51 1.447.218.391.484.701.812.953.333.256.735.45 1.198.579.492.138 1.07.207 1.72.207.654 0 1.235-.069 1.729-.207.463-.129.866-.323 1.197-.578.328-.251.592-.562.81-.952.223-.4.393-.887.506-1.448.116-.579.177-1.256.177-2.01 0-.75-.061-1.423-.177-1.999-.112-.56-.283-1.048-.506-1.45zm14.027-1.15c-.466-.24-1.106-.363-1.905-.363h-2.61v4.653h2.589c.782 0 1.415-.118 1.881-.354.369-.184.631-.442.802-.784.161-.321.243-.726.243-1.198 0-.462-.076-.856-.225-1.169-.163-.342-.416-.6-.775-.785zm-62.223 31.171c-.28.28-.474.563-.593.866-.102.261-.151.546-.151.875 0 .302.083.623.235.91.175.328.425.593.744.786.384.23.855.348 1.4.348.568 0 1.095-.122 1.568-.363.245-.126.481-.287.705-.479l-3.067-3.606c-.336.217-.618.439-.841.663zm64.221-233.515c.689-8.144-2.872-19.513-7.246-26.009-5.891 9.096-9.219 20.394-10.196 31.938-.561 6.622 1.834 16.164 5.542 16.478 6.72.57 10.806-9.493 11.9-22.407zm-87.036 203.619c-.229-.371-.507-.673-.856-.917-.352-.249-.779-.439-1.269-.564-.516-.132-1.122-.2-1.801-.2h-2.21v10.033h2.211c.679 0 1.285-.067 1.801-.2.491-.126.919-.314 1.27-.562.349-.245.628-.544.856-.917.235-.381.416-.849.536-1.386.125-.56.188-1.212.188-1.94 0-.732-.063-1.39-.188-1.952-.123-.54-.303-1.009-.538-1.395zm24.343 26.104c.314-.221.768-.613 1.003-.886.253-.293.287-.509.287-.681 0-.368-.092-.681-.259-.878-.162-.191-.402-.283-.734-.283-.338 0-.604.104-.792.311-.168.187-.265.45-.265.726 0 .25.096.555.284.903.159.292.336.581.476.788zm240.043-164.02c0 110.107-89.257 199.364-199.363 199.364-110.105 0-199.363-89.257-199.363-199.364 0-110.105 89.257-199.363 199.363-199.363s199.363 89.258 199.363 199.363zm-216.992-117.983c16.49-1.427 38.715-.889 61.001.312-1.172 13.086-2.318 26.877-2.795 35.975-1.178 22.465-2.423 32.153 4.742 41.317 3.369 4.306 8.484 4.949 14.896 3.565-4.484-10.972-4.741-22.139-3.157-40.093 1.074-12.179 4.148-26.229 7.024-39.486 15.477 1.058 30.092 2.246 41.803 3.097 4.76.346 7.728-5.628 12.54-5.375 4.813.252 8.303-.917 8.377-2.313.047-.914-.138-3.208-7.068-3.572-18.142-.951-35.634-1.973-53.34-2.686 1.755-8.529 3.138-16.355 3.467-22.65.421-8.028-7.84-12.961-14.844-13.328-6.201-.325-10.987.902-11.165 4.274-.129 2.471 2.992 2.474 2.839 5.394-.069 1.349-1.141 12.207-2.383 25.612-17.144-.373-34.801-.324-53.718.477-2.129.091-5.499 2.035-6.467 5.308-.707.636-1.667 2.568-1.752 4.172zm24.371 124.691c.384-3.134-4.013-4.561-8.15-4.776-4.136-.216-10 1.601-10.275 6.848-.274 5.247.582 12.072.105 21.154-.475 9.081-5.331 24.51-9.368 24.297-5.537-.288-6.849-12.203-6.198-24.607 1.064-20.304 10.417-46.271 23.017-47.262 3.862-.304 5.986-.293 6.133-3.119.148-2.826-8.194-7.738-14.551-8.072-21.672-1.136-32.008 25.739-33.301 50.389-1.203 22.954 5.859 43.271 22.369 43.271 9.653 0 15.288-8.815 16.586-18.159-.591 11.294 7.337 16.825 21.13 11.936-12.372-13.744-9.44-36.073-7.497-51.9zm5.277-39.437c14.013 1.188 21.686-11.947 23.394-32.105 1.324-15.633-7.822-30.745-16.99-31.832 2.22-2.642 4.711-5.018 7.48-7.057 1.67-1.228 1.023-2.572-.083-3.342-.814-.568-4.047-3.012-12.789-3.751-11.252-.954-23.751 15.812-25.416 35.465-1.773 20.928 6.123 41.073 24.404 42.622zm-151.805-49.475c.19 26.655 13.222 44.208 29.404 44.092 5.934-.042 10.176-2.902 11.608-8.192-14.833-10.664-19.851-24.322-19.949-38.148-.22-30.789 19.105-60.351 40.342-60.502 22.378-.16 38.233 29.407 38.473 63.011.176 24.728-11.105 48.829-25.444 51.591-9.917-24.869-12.504-54.263-9.293-89.446.325-3.562-1-5.421-3.724-5.03-16.419 2.36-23.437 14.489-22.116 32.001 1.555 20.612 7.755 42.037 14.525 59.474 4.338 11.171 7.683 14.703 14.596 14.653 34.451-.246 54.729-25.22 54.41-70.055-.226-31.607-23.904-69.23-58.858-68.981-35.152.249-64.27 34.074-63.974 75.532zm89.07 128.915c1.884-35.95-19.459-68.208-52.84-69.958-33.837-1.773-61.191 26.651-63.061 62.313-1.348 25.735 10.22 43.424 25.844 44.243 5.729.301 9.988-2.217 11.674-7.239-13.703-11.145-17.76-24.615-17.06-37.964 1.136-21.677 18.843-50.242 39.389-49.166 21.608 1.132 35.21 30.58 33.51 63.025-1.251 23.876-10.251 54.598-24.249 56.439-5.763-25.323-3.607-62.791-4.751-75.336-1.993-21.84-14.579-26.271-28.062-22.064-2.54.793-3.946 2.58-2.273 5.607 1.827 3.306 5.333 15.299 6.935 23.341 4.137 20.764.795 44.158 5.816 64.836 2.734 11.26 6.571 14.631 13.245 14.98 33.263 1.745 53.615-29.767 55.883-73.057zm-10.991 94.551c0-.793-.064-1.53-.19-2.198-.129-.686-.328-1.313-.592-1.873-.27-.573-.614-1.083-1.021-1.518-.412-.437-.896-.807-1.44-1.097-.535-.286-1.139-.501-1.799-.643-.642-.138-1.353-.209-2.115-.209l-2.059.002-2.059-.002c-.425 0-.771.347-.771.772l.001 8.285-.001 1.594.001 1.72-.001 1.908c0 .427.346.771.771.771h4.118c.762 0 1.473-.067 2.113-.203.658-.139 1.262-.354 1.798-.635.545-.288 1.031-.655 1.441-1.089.409-.434.753-.94 1.022-1.512.264-.557.463-1.186.592-1.87.127-.665.191-1.406.191-2.203zm13.442-6.765c0-.426-.345-.772-.771-.772h-8.36c-.426 0-.771.347-.771.772v13.507c0 .427.346.771.771.771h8.36c.426 0 .771-.345.771-.771v-.987c0-.426-.345-.771-.771-.771h-6.56v-3.771h5.698c.426 0 .771-.346.771-.771v-1.009c0-.426-.345-.771-.771-.771h-5.698v-3.689h6.56c.426 0 .771-.345.771-.771v-.967zm15.004 38.215l-1.786-2.118c.217-.377.414-.769.588-1.17.235-.543.421-1.091.539-1.584.055-.229.001-.471-.145-.656-.146-.185-.37-.293-.604-.293h-1.03c-.341 0-.642.226-.739.552-.062.206-.169.533-.335.923l-.05.116-2.267-2.638c.281-.188.518-.366.73-.541.491-.409.85-.824 1.098-1.273.284-.514.422-1.065.422-1.681 0-.627-.133-1.231-.389-1.744-.276-.562-.699-1.022-1.224-1.34-.555-.334-1.212-.503-1.951-.503-.683 0-1.305.151-1.849.449-.54.297-.984.736-1.284 1.272-.302.537-.455 1.152-.455 1.822 0 .665.155 1.312.476 1.977.147.305.393.638.619.94-.416.272-.878.579-1.161.86-.488.489-.862 1.026-1.106 1.594-.239.557-.361 1.154-.361 1.771 0 .593.104 1.172.312 1.723.216.572.531 1.083.938 1.52.434.465.956.828 1.553 1.08.63.264 1.332.398 2.085.398.627 0 1.234-.091 1.805-.273.538-.171 1.051-.426 1.528-.753.211-.145.416-.307.616-.482l.908 1.053c.146.17.36.268.584.268h1.343c.301 0 .573-.174.7-.446.127-.275.084-.594-.108-.823zm.782-38.648c-.143-.211-.381-.339-.638-.339h-1.112c-.317 0-.601.195-.718.489l-4.031 10.205-4.05-10.205c-.117-.296-.401-.489-.717-.489h-1.113c-.256 0-.495.128-.639.339-.143.212-.173.48-.079.719l5.355 13.506c.117.294.401.487.717.487h1.03c.316 0 .601-.193.717-.487l5.356-13.506c.096-.239.066-.508-.078-.719zm8.771 14.712h3.424c.425 0 .771-.345.771-.771v-.987c0-.426-.345-.771-.771-.771h-6.56v-3.771h5.707c.425 0 .771-.346.771-.771l-.008-.11v-.898c0-.426-.345-.771-.771-.771h-5.698v-3.689h6.56c.426 0 .771-.345.771-.771v-.967c0-.426-.345-.772-.771-.772h-8.361c-.426 0-.771.347-.771.772v13.507c0 .427.346.771.771.771h4.936zm14.067 17.689c0-.789-.063-1.528-.19-2.197-.129-.686-.329-1.317-.591-1.874-.27-.573-.613-1.083-1.021-1.517-.413-.438-.897-.806-1.44-1.097-.535-.284-1.14-.501-1.8-.643-.644-.137-1.356-.207-2.114-.207h-4.117c-.426 0-.772.345-.772.771v13.507c0 .425.346.771.772.771h4.117c.759 0 1.471-.069 2.112-.204.659-.14 1.265-.353 1.798-.635.545-.288 1.03-.653 1.441-1.088.409-.432.753-.94 1.023-1.511.263-.557.462-1.188.591-1.875.128-.665.191-1.407.191-2.201zm3.025-19.47c0-.425-.345-.771-.771-.771h-6.309v-11.728c0-.426-.345-.772-.771-.772h-1.029c-.426 0-.771.347-.771.772v5.998l.001 3.881-.001 3.628c0 .427.346.771.771.771h8.109c.426 0 .771-.345.771-.771v-1.008zm10.417 12.707c0-.427-.344-.771-.771-.771h-8.36c-.426 0-.771.345-.771.771v13.507c0 .425.345.771.771.771h8.36c.427 0 .771-.346.771-.771v-.989c0-.426-.344-.77-.771-.77h-6.56v-3.772h5.699c.426 0 .771-.345.771-.771v-1.009c0-.426-.346-.771-.771-.771h-5.699v-3.687h6.56c.427 0 .771-.347.771-.772v-.966zm2.326-11.628c.534-.302 1.007-.685 1.406-1.138.395-.445.727-.969.986-1.556.248-.566.439-1.208.562-1.908.12-.677.181-1.427.181-2.232 0-.805-.061-1.556-.181-2.231-.123-.699-.314-1.341-.564-1.908-.259-.587-.591-1.11-.984-1.557-.399-.453-.872-.835-1.406-1.138-.528-.299-1.126-.525-1.774-.673-.635-.145-1.341-.217-2.1-.217-.756 0-1.46.072-2.091.217-.646.147-1.241.374-1.769.673-.533.304-1.005.686-1.404 1.139-.393.446-.723.97-.982 1.556-.25.568-.439 1.209-.562 1.908-.12.679-.181 1.429-.181 2.231 0 .806.06 1.556.18 2.232.123.696.312 1.337.564 1.908.259.587.589 1.11.981 1.556.4.453.872.836 1.404 1.139.523.297 1.118.523 1.769.672.634.144 1.338.218 2.091.218.756 0 1.462-.074 2.1-.218.652-.148 1.249-.375 1.774-.673zm11.137 21.69c0-.961-.238-1.793-.708-2.472-.397-.576-.957-1.045-1.71-1.432-.654-.338-1.373-.569-1.99-.752l-.546-.158c-.452-.129-.882-.25-1.269-.39-.555-.199-.923-.395-1.158-.617-.23-.217-.328-.455-.328-.797 0-.385.088-.712.26-.972.177-.264.449-.472.814-.618.434-.177.985-.265 1.641-.265.587 0 1.173.076 1.741.229.482.131.948.313 1.389.543.238.126.527.117.758-.023.23-.14.371-.389.371-.659v-1.072c0-.297-.169-.567-.438-.695-.574-.273-1.17-.488-1.771-.637-.699-.17-1.425-.257-2.153-.257-.856 0-1.632.118-2.305.35-.651.227-1.21.559-1.662.99-.424.406-.748.894-.963 1.447-.197.508-.297 1.059-.297 1.639 0 .897.249 1.665.739 2.283.401.508.963.918 1.72 1.252.604.269 1.245.457 1.96.657l.123.034c.595.166 1.156.325 1.649.525.529.214.901.451 1.138.724.26.296.381.659.381 1.142 0 .395-.105.715-.321.978-.217.263-.547.47-.982.618-.466.158-1.026.237-1.664.237-.512 0-1.015-.045-1.493-.133-.425-.078-.832-.189-1.211-.33-.326-.124-.645-.273-.948-.444-.239-.136-.532-.134-.769.004-.238.138-.384.392-.384.667l.001 1.112c0 .294.167.563.433.692.403.198.822.368 1.241.506.476.154.975.274 1.485.358.562.092 1.145.139 1.729.139.837 0 1.604-.101 2.277-.301.677-.201 1.266-.503 1.746-.894.485-.395.857-.876 1.105-1.431.246-.536.369-1.137.369-1.777zm5.901-10.062c0-.427-.344-.771-.77-.771h-1.03c-.427 0-.771.345-.771.771v13.507c0 .425.344.771.771.771h1.029c.426 0 .771-.346.771-.771v-13.507zm.421-21.108c0-.733-.118-1.407-.353-2.003-.241-.614-.604-1.146-1.079-1.576-.472-.43-1.049-.756-1.716-.972-.647-.21-1.391-.318-2.202-.318h-4.538c-.425 0-.771.347-.771.772v13.486c0 .426.346.771.771.771h1.029c.426 0 .772-.346.772-.771v-4.522h2.715c.794 0 1.521-.102 2.163-.303.671-.211 1.251-.528 1.725-.943.487-.428.862-.958 1.113-1.574.247-.605.371-1.293.371-2.047zm15.646 27.515c0-.426-.344-.772-.771-.772h-4.83c-.427 0-.771.347-.771.772v1.009c0 .426.345.77.771.77h3.01v3.387c-.332.092-.672.169-1.018.226-1.168.199-2.32.182-3.199-.033-.47-.114-.885-.291-1.233-.521-.361-.239-.654-.535-.898-.906-.264-.398-.466-.885-.603-1.443-.149-.613-.225-1.33-.225-2.13 0-.791.075-1.502.225-2.112.137-.558.339-1.044.603-1.443.245-.372.539-.671.9-.913.351-.233.766-.413 1.235-.528.804-.199 1.847-.229 2.868-.088.411.057.832.142 1.245.254.404.107.814.244 1.219.403.239.093.507.062.717-.081.212-.145.337-.383.337-.638v-1.009c0-.318-.194-.604-.493-.718-.466-.182-.941-.335-1.412-.458-.486-.127-.982-.225-1.476-.291-1.19-.158-2.413-.131-3.443.088-.624.131-1.2.334-1.716.603-.54.28-1.025.64-1.443 1.065-.429.436-.792.951-1.08 1.526-.289.581-.511 1.239-.656 1.958-.146.722-.221 1.523-.221 2.382 0 .863.074 1.666.223 2.388.147.721.37 1.378.662 1.956.291.576.656 1.087 1.086 1.517.416.418.904.771 1.451 1.049.514.262 1.092.459 1.72.59.591.121 1.234.183 1.91.183.555 0 1.107-.035 1.646-.106.558-.072 1.108-.185 1.637-.332.549-.153 1.081-.348 1.577-.577.271-.126.446-.399.446-.7v-6.327zm1.221-18.105v-13.507c0-.426-.346-.772-.771-.772h-1.135c-.254 0-.492.126-.636.335l-4.385 6.386-4.385-6.386c-.144-.209-.382-.335-.635-.335h-1.115c-.425 0-.77.347-.77.772v13.507c0 .427.345.771.77.771h1.031c.426 0 .771-.345.771-.771l-.001-9.331 3.702 5.299c.143.206.379.33.631.33s.488-.124.632-.33l3.701-5.299v9.331c0 .427.347.771.772.771h1.051c.427.001.772-.344.772-.771zm14.871 11.698c0-.427-.347-.771-.772-.771h-1.051c-.426 0-.771.345-.771.771l-.001 9.555-7.105-10.002c-.145-.203-.379-.324-.631-.324h-1.176c-.426 0-.771.345-.771.771v13.507c0 .425.345.771.771.771h1.05c.426 0 .771-.346.771-.771v-9.546l7.131 9.992c.144.204.377.324.626.324h1.156c.426 0 .771-.346.771-.771l.002-13.506zm-8.194-19.778v-3.689h6.561c.425 0 .771-.345.771-.771v-.967c0-.426-.346-.772-.771-.772h-8.36c-.426 0-.771.347-.771.772v13.507c0 .427.345.771.771.771h8.36c.426 0 .771-.345.771-.771v-.987c0-.426-.346-.771-.771-.771h-6.56l-.001-3.771h5.699c.428 0 .771-.346.771-.771v-1.009c0-.426-.344-.771-.771-.771h-5.699zm-14.798-135.454c.535-10.238 3.961-15.339 9.445-18.518 2.962 5.999 3.493 13.832.128 23.716 3.465 3.85 15.287-.646 16.33-20.575.531-10.108-3.097-20.112-11.762-20.566-3.878-.204-8.422 1.331-11.338 4.398-1.499-.437-3.062-.713-4.649-.795-11.697-.613-18.802 13.689-19.562 28.193-1.181 22.527 30.496 47.163 28.748 80.52-.541 10.314-6.58 25.77-16.912 25.228-13.377-.7-13.343-23.665-1.541-36.958 2.242-2.522.661-3.393-1.792-3.52-7.992-.42-49.292 9.386-56.264 11.627-5.863 1.886-12.386 8.259-17.382 13.619-1.773 1.9-.883 3.331.791 2.712 15.224-5.645 42.599-13.263 55.298-14.914-2.125 3.639-3.448 7.339-3.761 13.303-.714 13.623 9.993 23.886 26.024 24.726 12.58.659 30.865-11.769 32.324-39.624 1.462-27.855-25.045-55.047-24.125-72.572zm37.649 130.027c0-.426-.344-.772-.771-.772h-1.05c-.426 0-.771.347-.771.772v9.557l-7.107-10.003c-.145-.204-.379-.326-.628-.326h-1.177c-.426 0-.771.347-.771.772v13.507c0 .427.346.771.771.771h1.05c.425 0 .771-.345.771-.771v-9.544l7.131 9.992c.146.202.378.323.629.323h1.153c.427 0 .771-.345.771-.771v-13.507zm15.312 0c0-.426-.345-.772-.77-.772h-10.861c-.424 0-.771.347-.771.772v1.009c0 .427.347.771.771.771h4.145v11.727c0 .427.345.771.77.771h1.054c.425 0 .77-.345.77-.771v-11.727h4.124c.425 0 .77-.345.77-.771v-1.009zm10.564-52.942c-1.11-3.822-1.774-7.407-2.188-10.749-10.852-1.576-23.521-2.572-31.996-3.017.351 3.017.648 6.021.374 10.061 11.032.578 22.813 1.845 33.81 3.705zm54.493 18.942c.674-12.863-15.718-20.872-35.68-25.769-.867-6.581-1.105-14.063-.675-22.281 1.791-34.177 7.002-48.866 8.142-70.624.387-7.381-7.61-13.206-13.771-13.529-8.783-.46-24.281 23.698-28.879 40.191-.352-5.715-.482-11.527-.407-17.352 14.021-18.696 30.829-76.407 26.729-89.726-.862-2.804-2.095-4.535-3.508-4.608-.51-.027-1.145.03-1.802.168-1.28-.873-2.996-1.323-5.565-1.458-9.5-.497-29.925 38.047-33.07 98.022-2.447 46.724-.061 64.225 17.567 65.148 2.695.141 4.596-.347 5.938-1.555-10.143-19.907 10.402-79.365 16.967-73.25 1.077 1.002-4.128 30.868-5.309 53.395-2.147 40.992 7.866 73.459 37.004 74.985 8.316.439 15.984-5.372 16.319-11.757zm-33.285-14.394c3.583 11.662 10.023 18.581 18.946 19.049 3.08.161 5.058-1.923 5.133-3.399.328-6.236-9.652-11.58-24.079-15.65zm-36.977-114.229c7.968-17.989 16.831-48.487 17.881-64.976-9.277 15.274-15.539 39.357-17.881 64.976z"/></svg>