<svg xmlns="http://www.w3.org/2000/svg" width="607" height="542" viewBox="0 0 607 542"><path fill="#fff" d="M537.155 454.438c-1.648-12.517-2.103-26.747-1.281-42.38 3.406-65.002 13.316-92.943 15.486-134.327.735-14.038-14.476-25.117-26.195-25.73-16.705-.875-46.182 45.074-54.928 76.441-.67-10.87-.918-21.926-.773-33.002 26.664-35.562 58.637-145.328 50.84-170.661-1.641-5.333-3.985-8.625-6.674-8.766-.969-.051-2.176.059-3.426.321-2.435-1.66-5.699-2.516-10.588-2.771-18.068-.947-56.918 72.363-62.896 186.439-4.66 88.868-.121 122.156 33.41 123.914 5.127.268 8.74-.659 11.293-2.959-19.289-37.862 19.787-150.953 32.273-139.323 2.049 1.907-7.853 58.711-10.099 101.56-4.086 77.968 14.962 139.72 70.382 142.623 15.813.829 30.401-10.222 31.036-22.363 1.289-24.472-29.889-39.705-67.86-49.016zm-31.765-319.217c-2 31.363-18.854 89.369-34.012 123.586 4.457-48.729 16.369-94.534 34.012-123.586zm82.123 370.617c-.146 2.809-3.903 6.773-9.764 6.465-16.973-.89-29.223-14.048-36.037-36.229 27.437 7.74 46.42 17.903 45.801 29.764zm-90.301-58.86c.785 6.356 2.051 13.175 4.16 20.441-20.912-3.531-43.322-5.944-64.305-7.044.522-7.683-.048-13.396-.711-19.135 16.118.846 40.215 2.738 60.856 5.738zm-70.774 11.859c-2.775 52.98-37.558 76.619-61.482 75.365-30.49-1.6-50.857-21.117-49.5-47.028.596-11.345 3.111-18.382 7.154-25.303-24.154 3.142-76.221 17.632-105.178 28.367-3.184 1.18-4.877-1.542-1.505-5.157 9.502-10.197 21.909-22.319 33.062-25.904 13.26-4.262 91.814-22.913 107.012-22.118 4.668.246 7.676 1.899 3.414 6.7-22.451 25.281-22.514 68.958 2.926 70.292 19.652 1.029 31.141-28.365 32.168-47.98 3.326-63.448-56.924-110.308-54.68-153.154 1.447-27.584 14.963-54.788 37.211-53.622 3.02.158 5.99.683 8.842 1.512 5.545-5.833 14.189-8.75 21.566-8.364 16.479.864 23.381 19.892 22.371 39.117-1.986 37.904-24.472 46.454-31.062 39.136 6.4-18.801 5.392-33.701-.242-45.107-10.43 6.044-16.947 15.746-17.967 35.217-1.75 33.332 48.668 85.052 45.89 138.031zm-94.564-133.773c-3.696 30.102-9.271 72.57 14.265 98.71-26.234 9.3-41.313-1.224-40.188-22.701-2.474 17.77-13.19 34.537-31.55 34.537-31.402 0-44.834-38.641-42.546-82.301 2.457-46.885 22.117-98 63.338-95.84 12.092.634 27.958 9.978 27.676 15.351-.281 5.375-4.32 5.355-11.666 5.934-23.965 1.887-41.753 51.275-43.776 89.892-1.237 23.596 1.258 46.257 11.788 46.809 7.678.402 16.913-28.943 17.817-46.217.906-17.274-.723-30.255-.2-40.234s11.676-13.436 19.543-13.023c7.866.409 16.229 3.12 15.499 9.083zm-215.575 215.044c-12.694-.666-19.992-7.079-25.191-28.495-9.551-39.33-3.193-83.826-11.063-123.32-3.047-15.292-9.713-38.104-13.189-44.392-3.182-5.758-.509-9.16 4.323-10.668 25.645-8.001 49.585.429 53.376 41.968 2.177 23.861-1.924 95.127 9.036 143.291 26.624-3.5 43.742-61.938 46.122-107.351 3.234-61.71-22.636-117.721-63.736-119.872-39.08-2.05-72.757 52.284-74.917 93.512-1.332 25.392 6.384 51.013 32.447 72.207-3.206 9.555-11.307 14.342-22.204 13.77-29.717-1.557-51.722-35.2-49.156-84.153 3.553-67.825 55.582-121.89 119.941-118.517 63.492 3.328 104.085 64.684 100.502 133.061-4.315 82.339-43.025 142.275-106.291 138.959zm169.222-452.21c.16-3.051 1.987-6.727 3.332-7.936 1.843-6.226 8.254-9.924 12.302-10.096 35.979-1.524 69.563-1.617 102.174-.908 2.361-25.498 4.396-46.15 4.531-48.715.291-5.554-5.646-5.56-5.398-10.26.336-6.414 9.439-8.747 21.234-8.129 13.317.698 29.033 10.08 28.231 25.35-.627 11.974-3.258 26.859-6.594 43.082 33.678 1.357 66.947 3.3 101.449 5.109 13.186.691 13.537 5.054 13.447 6.793-.142 2.656-6.775 4.879-15.931 4.399-9.155-.479-14.803 10.883-23.854 10.226-22.271-1.62-50.07-3.879-79.508-5.891-5.472 25.215-11.318 51.938-13.361 75.103-3.012 34.147-2.523 55.387 6.004 76.257-12.195 2.631-21.926 1.408-28.332-6.782-13.629-17.429-11.258-35.855-9.02-78.585.905-17.303 3.086-43.534 5.317-68.425-42.387-2.282-84.657-3.304-116.023-.592zm100.886 101.089c2.521-29.735-14.877-58.477-32.316-60.544 4.224-5.026 8.959-9.545 14.23-13.423 3.174-2.335 1.944-4.891-.16-6.356-1.55-1.079-7.695-5.727-24.324-7.135-21.399-1.815-45.175 30.074-48.341 67.455-3.374 39.806 11.645 78.122 46.415 81.067 26.653 2.259 41.248-22.721 44.496-61.064zm-48.123 40.968c-7.056-.599-11.606-18.746-10.541-31.342 1.86-21.958 8.188-43.447 19.396-60.748 8.317 12.354 15.094 33.979 13.782 49.471-2.082 24.561-9.853 43.702-22.637 42.619zm-285.107-74.006c-.562-78.854 54.82-143.188 121.679-143.664 66.481-.476 111.521 71.086 111.948 131.202.609 85.278-37.963 132.781-103.486 133.246-13.149.095-19.513-6.624-27.762-27.871-12.878-33.164-24.671-73.915-27.628-113.12-2.512-33.307 10.837-56.376 42.064-60.866 5.184-.745 7.702 2.792 7.083 9.568-6.105 66.917-1.185 122.826 17.678 170.126 27.271-5.252 48.73-51.094 48.396-98.127-.456-63.914-30.611-120.151-73.177-119.848-40.394.287-77.148 56.514-76.73 115.075.187 26.3 9.729 52.278 37.942 72.56-2.724 10.062-10.793 15.5-22.079 15.582-30.779.221-55.566-33.164-55.928-83.863z"/></svg>